<svg width="20" height="20" viewBox="0 0 20 20" fill="none" xmlns="http://www.w3.org/2000/svg">
<path d="M7.42467 17.225C7.26634 17.225 7.10801 17.1667 6.98301 17.0417C6.74134 16.8 6.74134 16.4 6.98301 16.1583L12.4163 10.725C12.8163 10.325 12.8163 9.67502 12.4163 9.27502L6.98301 3.84168C6.74134 3.60002 6.74134 3.20002 6.98301 2.95835C7.22467 2.71668 7.62467 2.71668 7.86634 2.95835L13.2997 8.39168C13.7247 8.81668 13.9663 9.39168 13.9663 10C13.9663 10.6084 13.733 11.1834 13.2997 11.6084L7.86634 17.0417C7.74134 17.1584 7.58301 17.225 7.42467 17.225Z" fill="#292D32"/>
</svg>
