<svg width="20" height="20" viewBox="0 0 20 20" fill="none" xmlns="http://www.w3.org/2000/svg">
<path d="M2.77474 7.42492C2.77474 7.26658 2.83307 7.10825 2.95807 6.98325C3.19974 6.74158 3.59974 6.74158 3.84141 6.98325L9.27474 12.4166C9.67474 12.8166 10.3247 12.8166 10.7247 12.4166L16.1581 6.98325C16.3997 6.74159 16.7997 6.74159 17.0414 6.98325C17.2831 7.22492 17.2831 7.62492 17.0414 7.86658L11.6081 13.2999C11.1831 13.7249 10.6081 13.9666 9.99974 13.9666C9.39141 13.9666 8.8164 13.7333 8.3914 13.2999L2.95807 7.86658C2.8414 7.74158 2.77474 7.58325 2.77474 7.42492Z" fill="#292D32"/>
</svg>
