<svg width="20" height="20" viewBox="0 0 20 20" fill="none" xmlns="http://www.w3.org/2000/svg">
<path d="M9.48301 15.7501C9.20801 15.7501 8.93301 15.6834 8.68301 15.5417C8.17467 15.2584 7.86634 14.7417 7.86634 14.1584V11.5917C7.86634 11.4334 7.74134 11.1251 7.61634 10.9667L5.80801 9.06675C5.46634 8.72508 5.20801 8.12508 5.20801 7.66675V6.55841C5.20801 5.63341 5.90801 4.91675 6.79967 4.91675H13.1913C14.0663 4.91675 14.783 5.63341 14.783 6.50841V7.57508C14.783 8.15841 14.4497 8.80008 14.1163 9.13341L12.008 11.0001C11.8747 11.1167 11.733 11.4084 11.733 11.6501V13.7334C11.733 14.2584 11.4163 14.8417 10.9913 15.0917L10.333 15.5167C10.0747 15.6751 9.78301 15.7501 9.48301 15.7501ZM6.79967 6.16675C6.59967 6.16675 6.45801 6.33341 6.45801 6.55841V7.66675C6.45801 7.77508 6.57467 8.05841 6.70801 8.19175L8.55801 10.1417C8.84134 10.5001 9.11634 11.0751 9.11634 11.5917V14.1584C9.11634 14.3251 9.22467 14.4167 9.29134 14.4501C9.38301 14.5001 9.53301 14.5334 9.66634 14.4501L10.333 14.0167C10.3997 13.9667 10.483 13.8001 10.483 13.7167V11.6334C10.483 11.0417 10.7747 10.3834 11.1913 10.0417L13.258 8.20841C13.3663 8.10008 13.533 7.76675 13.533 7.55841V6.50841C13.533 6.32508 13.3747 6.16675 13.1913 6.16675H6.79967Z" fill="#757575"/>
<path d="M12.5003 18.9584H7.50033C2.97533 18.9584 1.04199 17.0251 1.04199 12.5001V7.50008C1.04199 2.97508 2.97533 1.04175 7.50033 1.04175H12.5003C17.0253 1.04175 18.9587 2.97508 18.9587 7.50008V12.5001C18.9587 17.0251 17.0253 18.9584 12.5003 18.9584ZM7.50033 2.29175C3.65866 2.29175 2.29199 3.65841 2.29199 7.50008V12.5001C2.29199 16.3417 3.65866 17.7084 7.50033 17.7084H12.5003C16.342 17.7084 17.7087 16.3417 17.7087 12.5001V7.50008C17.7087 3.65841 16.342 2.29175 12.5003 2.29175H7.50033Z" fill="#757575"/>
</svg>
