<svg width="32" height="32" viewBox="0 0 32 32" fill="none" xmlns="http://www.w3.org/2000/svg">
<path d="M29.3332 30.3333H2.6665C2.11984 30.3333 1.6665 29.8799 1.6665 29.3333C1.6665 28.7866 2.11984 28.3333 2.6665 28.3333H29.3332C29.8798 28.3333 30.3332 28.7866 30.3332 29.3333C30.3332 29.8799 29.8798 30.3333 29.3332 30.3333Z" fill="#056C73"/>
<path d="M28.0003 13.3067V29.3333H3.93359L4.00026 13.2933C4.00026 12.48 4.37359 11.7067 5.02693 11.2L14.3603 3.94671C15.3203 3.18671 16.6803 3.18671 17.6403 3.94671L19.4269 5.33335L25.3336 9.92002L26.9736 11.2C27.6269 11.7067 28.0003 12.48 28.0003 13.3067Z" fill="#ACCED0"/>
<path d="M17.3332 22.6667H14.6665C13.5598 22.6667 12.6665 23.5601 12.6665 24.6667V29.3334H19.3332V24.6667C19.3332 23.5601 18.4398 22.6667 17.3332 22.6667Z" fill="#056C73"/>
<path d="M12.6665 18.3334H9.99984C9.2665 18.3334 8.6665 17.7334 8.6665 17.0001V15.0001C8.6665 14.2667 9.2665 13.6667 9.99984 13.6667H12.6665C13.3998 13.6667 13.9998 14.2667 13.9998 15.0001V17.0001C13.9998 17.7334 13.3998 18.3334 12.6665 18.3334Z" fill="#056C73"/>
<path d="M22 18.3334H19.3333C18.6 18.3334 18 17.7334 18 17.0001V15.0001C18 14.2667 18.6 13.6667 19.3333 13.6667H22C22.7333 13.6667 23.3333 14.2667 23.3333 15.0001V17.0001C23.3333 17.7334 22.7333 18.3334 22 18.3334Z" fill="#056C73"/>
<path d="M25.3329 9.91992L19.4263 5.33325H23.9729C24.7063 5.33325 25.3063 5.91991 25.3063 6.65324L25.3329 9.91992Z" fill="#056C73"/>
</svg>
