<svg width="32" height="32" viewBox="0 0 32 32" fill="none" xmlns="http://www.w3.org/2000/svg">
<path opacity="0.4" d="M27.4935 11.2666C26.0935 5.10659 20.7201 2.33325 16.0001 2.33325C16.0001 2.33325 16.0001 2.33325 15.9868 2.33325C11.2801 2.33325 5.89346 5.09325 4.49346 11.2533C2.93346 18.1333 7.14679 23.9599 10.9601 27.6266C12.3735 28.9866 14.1868 29.6666 16.0001 29.6666C17.8135 29.6666 19.6268 28.9866 21.0268 27.6266C24.8401 23.9599 29.0535 18.1466 27.4935 11.2666Z" fill="#056C73"/>
<path d="M16.0003 17.9466C18.3199 17.9466 20.2003 16.0662 20.2003 13.7466C20.2003 11.427 18.3199 9.54663 16.0003 9.54663C13.6807 9.54663 11.8003 11.427 11.8003 13.7466C11.8003 16.0662 13.6807 17.9466 16.0003 17.9466Z" fill="#056C73"/>
</svg>
