<svg width="56" height="32" viewBox="0 0 56 32" fill="none" xmlns="http://www.w3.org/2000/svg">
<g filter="url(#filter0_d_940_19153)">
<rect x="2" y="1" width="52" height="28" rx="6" fill="white"/>
<path d="M23.1533 9.34001L24.3266 11.6867C24.4866 12.0133 24.9133 12.3267 25.2733 12.3867L27.3999 12.74C28.7599 12.9667 29.0799 13.9533 28.0999 14.9267L26.4466 16.58C26.1666 16.86 26.0133 17.4 26.0999 17.7867L26.5733 19.8333C26.9466 21.4533 26.0866 22.08 24.6533 21.2333L22.6599 20.0533C22.2999 19.84 21.7066 19.84 21.3399 20.0533L19.3466 21.2333C17.9199 22.08 17.0533 21.4467 17.4266 19.8333L17.8999 17.7867C17.9866 17.4 17.8333 16.86 17.5533 16.58L15.8999 14.9267C14.9266 13.9533 15.2399 12.9667 16.5999 12.74L18.7266 12.3867C19.0799 12.3267 19.5066 12.0133 19.6666 11.6867L20.8399 9.34001C21.4799 8.06668 22.5199 8.06668 23.1533 9.34001Z" fill="#F8B739"/>
<path d="M39.012 16.696C39.4133 16.7613 39.7587 16.9107 40.048 17.144C40.3373 17.368 40.5613 17.6573 40.72 18.012C40.8787 18.3573 40.958 18.7493 40.958 19.188C40.958 19.7573 40.818 20.2567 40.538 20.686C40.2673 21.1247 39.88 21.4607 39.376 21.694C38.872 21.9367 38.284 22.058 37.612 22.058C36.9027 22.058 36.2773 21.9227 35.736 21.652C35.204 21.3907 34.7887 21.0173 34.49 20.532L35.316 19.706C35.5307 20.0793 35.82 20.378 36.184 20.602C36.5573 20.826 37.0333 20.938 37.612 20.938C38.256 20.938 38.76 20.7887 39.124 20.49C39.4973 20.2007 39.684 19.7667 39.684 19.188C39.684 18.6 39.4833 18.1333 39.082 17.788C38.69 17.4333 38.116 17.256 37.36 17.256H36.996V16.22H37.388C38.06 16.22 38.5733 16.0567 38.928 15.73C39.292 15.4033 39.474 14.9973 39.474 14.512C39.474 14.176 39.3947 13.9007 39.236 13.686C39.0773 13.4713 38.8627 13.3127 38.592 13.21C38.3213 13.098 38.0087 13.042 37.654 13.042C37.1407 13.042 36.688 13.154 36.296 13.378C35.9133 13.5927 35.6147 13.896 35.4 14.288L34.644 13.504C34.812 13.1867 35.05 12.9113 35.358 12.678C35.6753 12.4447 36.0393 12.2627 36.45 12.132C36.87 12.0013 37.3133 11.936 37.78 11.936C38.368 11.936 38.886 12.0387 39.334 12.244C39.7913 12.4493 40.146 12.7387 40.398 13.112C40.65 13.4853 40.776 13.924 40.776 14.428C40.776 14.792 40.706 15.1373 40.566 15.464C40.426 15.7813 40.2207 16.052 39.95 16.276C39.6887 16.4907 39.376 16.6307 39.012 16.696Z" fill="#F8B739"/>
<rect x="2.5" y="1.5" width="51" height="27" rx="5.5" stroke="#C2C2C2"/>
</g>
<defs>
<filter id="filter0_d_940_19153" x="0" y="0" width="56" height="32" filterUnits="userSpaceOnUse" color-interpolation-filters="sRGB">
<feFlood flood-opacity="0" result="BackgroundImageFix"/>
<feColorMatrix in="SourceAlpha" type="matrix" values="0 0 0 0 0 0 0 0 0 0 0 0 0 0 0 0 0 0 127 0" result="hardAlpha"/>
<feOffset dy="1"/>
<feGaussianBlur stdDeviation="1"/>
<feColorMatrix type="matrix" values="0 0 0 0 0 0 0 0 0 0 0 0 0 0 0 0 0 0 0.12 0"/>
<feBlend mode="normal" in2="BackgroundImageFix" result="effect1_dropShadow_940_19153"/>
<feBlend mode="normal" in="SourceGraphic" in2="effect1_dropShadow_940_19153" result="shape"/>
</filter>
</defs>
</svg>
