<svg width="56" height="32" viewBox="0 0 56 32" fill="none" xmlns="http://www.w3.org/2000/svg">
<g filter="url(#filter0_d_940_19149)">
<rect x="2" y="1" width="52" height="28" rx="6" fill="white"/>
<path d="M23.1533 9.34001L24.3266 11.6867C24.4866 12.0133 24.9133 12.3267 25.2733 12.3867L27.3999 12.74C28.7599 12.9667 29.0799 13.9533 28.0999 14.9267L26.4466 16.58C26.1666 16.86 26.0133 17.4 26.0999 17.7867L26.5733 19.8333C26.9466 21.4533 26.0866 22.08 24.6533 21.2333L22.6599 20.0533C22.2999 19.84 21.7066 19.84 21.3399 20.0533L19.3466 21.2333C17.9199 22.08 17.0533 21.4467 17.4266 19.8333L17.8999 17.7867C17.9866 17.4 17.8333 16.86 17.5533 16.58L15.8999 14.9267C14.9266 13.9533 15.2399 12.9667 16.5999 12.74L18.7266 12.3867C19.0799 12.3267 19.5066 12.0133 19.6666 11.6867L20.8399 9.34001C21.4799 8.06668 22.5199 8.06668 23.1533 9.34001Z" fill="#F8B739"/>
<path d="M34.602 20C34.602 19.6267 34.63 19.2767 34.686 18.95C34.7513 18.6233 34.8633 18.3107 35.022 18.012C35.19 17.7133 35.4233 17.4287 35.722 17.158C36.0207 16.878 36.408 16.6073 36.884 16.346C37.164 16.1873 37.444 16.038 37.724 15.898C38.0133 15.758 38.2793 15.6087 38.522 15.45C38.774 15.2913 38.9747 15.1187 39.124 14.932C39.2733 14.736 39.348 14.512 39.348 14.26C39.348 14.0453 39.2827 13.84 39.152 13.644C39.0307 13.4387 38.844 13.2753 38.592 13.154C38.3493 13.0233 38.046 12.958 37.682 12.958C37.402 12.958 37.1453 12.9953 36.912 13.07C36.688 13.1447 36.4827 13.2427 36.296 13.364C36.1187 13.476 35.96 13.5973 35.82 13.728C35.6893 13.8493 35.5773 13.9613 35.484 14.064L34.714 13.196C34.7887 13.112 34.9147 13 35.092 12.86C35.2693 12.7107 35.4933 12.5613 35.764 12.412C36.0347 12.2627 36.3473 12.1367 36.702 12.034C37.066 11.922 37.4627 11.866 37.892 11.866C38.4707 11.866 38.9653 11.9687 39.376 12.174C39.796 12.37 40.118 12.6407 40.342 12.986C40.566 13.322 40.678 13.7 40.678 14.12C40.678 14.484 40.5987 14.8013 40.44 15.072C40.2907 15.3427 40.0947 15.5807 39.852 15.786C39.6187 15.9913 39.3713 16.1687 39.11 16.318C38.858 16.458 38.6293 16.5793 38.424 16.682C38.004 16.8873 37.6447 17.074 37.346 17.242C37.0473 17.41 36.8 17.578 36.604 17.746C36.4173 17.9047 36.2633 18.0727 36.142 18.25C36.03 18.4273 35.946 18.6373 35.89 18.88H40.832V20H34.602Z" fill="#F8B739"/>
<rect x="2.5" y="1.5" width="51" height="27" rx="5.5" stroke="#C2C2C2"/>
</g>
<defs>
<filter id="filter0_d_940_19149" x="0" y="0" width="56" height="32" filterUnits="userSpaceOnUse" color-interpolation-filters="sRGB">
<feFlood flood-opacity="0" result="BackgroundImageFix"/>
<feColorMatrix in="SourceAlpha" type="matrix" values="0 0 0 0 0 0 0 0 0 0 0 0 0 0 0 0 0 0 127 0" result="hardAlpha"/>
<feOffset dy="1"/>
<feGaussianBlur stdDeviation="1"/>
<feColorMatrix type="matrix" values="0 0 0 0 0 0 0 0 0 0 0 0 0 0 0 0 0 0 0.12 0"/>
<feBlend mode="normal" in2="BackgroundImageFix" result="effect1_dropShadow_940_19149"/>
<feBlend mode="normal" in="SourceGraphic" in2="effect1_dropShadow_940_19149" result="shape"/>
</filter>
</defs>
</svg>
