<svg width="56" height="32" viewBox="0 0 56 32" fill="none" xmlns="http://www.w3.org/2000/svg">
<g filter="url(#filter0_d_940_19161)">
<rect x="2" y="1" width="52" height="28" rx="6" fill="white"/>
<path d="M23.1533 9.34001L24.3266 11.6867C24.4866 12.0133 24.9133 12.3267 25.2733 12.3867L27.3999 12.74C28.7599 12.9667 29.0799 13.9533 28.0999 14.9267L26.4466 16.58C26.1666 16.86 26.0133 17.4 26.0999 17.7867L26.5733 19.8333C26.9466 21.4533 26.0866 22.08 24.6533 21.2333L22.6599 20.0533C22.2999 19.84 21.7066 19.84 21.3399 20.0533L19.3466 21.2333C17.9199 22.08 17.0533 21.4467 17.4266 19.8333L17.8999 17.7867C17.9866 17.4 17.8333 16.86 17.5533 16.58L15.8999 14.9267C14.9266 13.9533 15.2399 12.9667 16.5999 12.74L18.7266 12.3867C19.0799 12.3267 19.5066 12.0133 19.6666 11.6867L20.8399 9.34001C21.4799 8.06668 22.5199 8.06668 23.1533 9.34001Z" fill="#F8B739"/>
<path d="M37.668 22.086C36.9587 22.086 36.3193 21.918 35.75 21.582C35.1807 21.246 34.7513 20.798 34.462 20.238L35.232 19.566C35.4933 19.9953 35.8387 20.3407 36.268 20.602C36.7067 20.8633 37.178 20.994 37.682 20.994C38.1113 20.994 38.494 20.9007 38.83 20.714C39.166 20.5273 39.432 20.2707 39.628 19.944C39.824 19.608 39.922 19.2253 39.922 18.796C39.922 18.376 39.824 18.0073 39.628 17.69C39.4413 17.3727 39.1847 17.1253 38.858 16.948C38.5407 16.7707 38.1813 16.682 37.78 16.682C37.3787 16.682 37.0007 16.7707 36.646 16.948C36.3007 17.1253 36.016 17.3773 35.792 17.704H34.686L35.806 12.006H40.636V13.14H36.716L36.114 16.304C36.3193 16.0893 36.576 15.9213 36.884 15.8C37.2013 15.6693 37.5513 15.604 37.934 15.604C38.55 15.604 39.1007 15.7393 39.586 16.01C40.0807 16.2807 40.468 16.654 40.748 17.13C41.0373 17.606 41.182 18.1567 41.182 18.782C41.182 19.4353 41.0233 20.0093 40.706 20.504C40.398 21.008 39.978 21.3953 39.446 21.666C38.914 21.946 38.3213 22.086 37.668 22.086Z" fill="#F8B739"/>
<rect x="2.5" y="1.5" width="51" height="27" rx="5.5" stroke="#C2C2C2"/>
</g>
<defs>
<filter id="filter0_d_940_19161" x="0" y="0" width="56" height="32" filterUnits="userSpaceOnUse" color-interpolation-filters="sRGB">
<feFlood flood-opacity="0" result="BackgroundImageFix"/>
<feColorMatrix in="SourceAlpha" type="matrix" values="0 0 0 0 0 0 0 0 0 0 0 0 0 0 0 0 0 0 127 0" result="hardAlpha"/>
<feOffset dy="1"/>
<feGaussianBlur stdDeviation="1"/>
<feColorMatrix type="matrix" values="0 0 0 0 0 0 0 0 0 0 0 0 0 0 0 0 0 0 0.12 0"/>
<feBlend mode="normal" in2="BackgroundImageFix" result="effect1_dropShadow_940_19161"/>
<feBlend mode="normal" in="SourceGraphic" in2="effect1_dropShadow_940_19161" result="shape"/>
</filter>
</defs>
</svg>
