<svg width="25" height="24" viewBox="0 0 25 24" fill="none" xmlns="http://www.w3.org/2000/svg">
<path d="M11.6174 21.75C5.96743 21.75 1.36743 17.15 1.36743 11.5C1.36743 5.85 5.96743 1.25 11.6174 1.25C17.2674 1.25 21.8674 5.85 21.8674 11.5C21.8674 17.15 17.2674 21.75 11.6174 21.75ZM11.6174 2.75C6.78743 2.75 2.86743 6.68 2.86743 11.5C2.86743 16.32 6.78743 20.25 11.6174 20.25C16.4474 20.25 20.3674 16.32 20.3674 11.5C20.3674 6.68 16.4474 2.75 11.6174 2.75Z" fill="#757575"/>
<path d="M22.1174 22.7499C21.9274 22.7499 21.7374 22.6799 21.5874 22.5299L19.5874 20.5299C19.2974 20.2399 19.2974 19.7599 19.5874 19.4699C19.8774 19.1799 20.3574 19.1799 20.6474 19.4699L22.6474 21.4699C22.9374 21.7599 22.9374 22.2399 22.6474 22.5299C22.4974 22.6799 22.3074 22.7499 22.1174 22.7499Z" fill="#757575"/>
</svg>
